<svg width="131" height="36" viewBox="0 0 131 36" fill="none" xmlns="http://www.w3.org/2000/svg">
<rect x="0.5" y="0.5" width="130" height="35" rx="11.5" fill="#111111" stroke="white"/>
<path d="M25.8182 16.1406C25.7287 15.8295 25.603 15.5547 25.4411 15.3161C25.2791 15.0732 25.081 14.8686 24.8466 14.7024C24.6165 14.532 24.3523 14.402 24.054 14.3125C23.7599 14.223 23.4339 14.1783 23.076 14.1783C22.407 14.1783 21.8189 14.3445 21.3118 14.6768C20.8089 15.0092 20.4169 15.4929 20.1357 16.1278C19.8544 16.7585 19.7138 17.5298 19.7138 18.4418C19.7138 19.3537 19.8523 20.1293 20.1293 20.7685C20.4063 21.4077 20.7983 21.8956 21.3054 22.2322C21.8125 22.5646 22.4112 22.7308 23.1016 22.7308C23.728 22.7308 24.2628 22.62 24.706 22.3984C25.1534 22.1726 25.4943 21.8551 25.7287 21.446C25.9673 21.0369 26.0866 20.5533 26.0866 19.995L26.6491 20.0781H23.2741V17.9943H28.7521V19.6435C28.7521 20.794 28.5092 21.7827 28.0234 22.6094C27.5376 23.4318 26.8686 24.0668 26.0163 24.5142C25.1641 24.9574 24.1882 25.179 23.0888 25.179C21.8615 25.179 20.7834 24.9084 19.8544 24.3672C18.9254 23.8217 18.201 23.0483 17.6811 22.0469C17.1655 21.0412 16.9077 19.848 16.9077 18.4673C16.9077 17.4062 17.0611 16.4602 17.3679 15.6293C17.679 14.794 18.1136 14.0866 18.6719 13.5071C19.2301 12.9276 19.88 12.4865 20.6214 12.1839C21.3629 11.8814 22.1662 11.7301 23.0312 11.7301C23.7727 11.7301 24.4631 11.8388 25.1023 12.0561C25.7415 12.2692 26.3082 12.5717 26.8026 12.9638C27.3011 13.3558 27.7081 13.8224 28.0234 14.3636C28.3388 14.9006 28.5412 15.4929 28.6307 16.1406H25.8182ZM33.5797 25.1854C32.9533 25.1854 32.3951 25.0767 31.905 24.8594C31.415 24.6378 31.0272 24.3118 30.7417 23.8814C30.4604 23.4467 30.3198 22.9055 30.3198 22.2578C30.3198 21.7124 30.4199 21.2543 30.6202 20.8835C30.8205 20.5128 31.0932 20.2145 31.4384 19.9886C31.7836 19.7628 32.1756 19.5923 32.6145 19.4773C33.0577 19.3622 33.5222 19.2812 34.008 19.2344C34.579 19.1747 35.0392 19.1193 35.3887 19.0682C35.7381 19.0128 35.9917 18.9318 36.1493 18.8253C36.307 18.7187 36.3858 18.5611 36.3858 18.3523V18.3139C36.3858 17.9091 36.258 17.5959 36.0023 17.3743C35.7509 17.1527 35.3929 17.0419 34.9284 17.0419C34.4384 17.0419 34.0485 17.1506 33.7587 17.3679C33.4689 17.581 33.2772 17.8494 33.1834 18.1733L30.665 17.9688C30.7928 17.3722 31.0442 16.8565 31.4192 16.4219C31.7942 15.983 32.2779 15.6463 32.8702 15.4119C33.4668 15.1733 34.1571 15.054 34.9412 15.054C35.4867 15.054 36.0087 15.1179 36.5073 15.2457C37.0101 15.3736 37.4554 15.5717 37.8432 15.8402C38.2353 16.1087 38.5442 16.4538 38.7701 16.8757C38.9959 17.2933 39.1088 17.794 39.1088 18.3778V25H36.5265V23.6385H36.4498C36.2921 23.9453 36.0811 24.2159 35.8169 24.4503C35.5527 24.6804 35.2353 24.8615 34.8645 24.9936C34.4938 25.1214 34.0655 25.1854 33.5797 25.1854ZM34.3596 23.3061C34.7601 23.3061 35.1138 23.2273 35.4206 23.0696C35.7275 22.9077 35.9682 22.6903 36.1429 22.4176C36.3176 22.1449 36.405 21.8359 36.405 21.4908V20.4489C36.3198 20.5043 36.2026 20.5554 36.0534 20.6023C35.9086 20.6449 35.7445 20.6854 35.5613 20.7237C35.378 20.7578 35.1948 20.7898 35.0115 20.8196C34.8283 20.8452 34.6621 20.8686 34.513 20.8899C34.1934 20.9368 33.9142 21.0114 33.6756 21.1136C33.437 21.2159 33.2516 21.3544 33.1195 21.5291C32.9874 21.6996 32.9213 21.9126 32.9213 22.1683C32.9213 22.5391 33.0556 22.8224 33.324 23.0185C33.5968 23.2102 33.9419 23.3061 34.3596 23.3061ZM41.2214 25V15.1818H43.8166V16.9141H43.9316C44.1362 16.3388 44.4771 15.8849 44.9544 15.5526C45.4316 15.2202 46.0027 15.054 46.6674 15.054C47.3407 15.054 47.9139 15.2223 48.3869 15.5589C48.8599 15.8913 49.1752 16.343 49.3329 16.9141H49.4352C49.6355 16.3516 49.9977 15.902 50.5218 15.5653C51.0502 15.2244 51.6745 15.054 52.3947 15.054C53.3109 15.054 54.0545 15.3459 54.6255 15.9297C55.2008 16.5092 55.4885 17.3317 55.4885 18.397V25H52.7718V18.9339C52.7718 18.3885 52.627 17.9794 52.3372 17.7067C52.0474 17.4339 51.6852 17.2976 51.2505 17.2976C50.7562 17.2976 50.3706 17.4553 50.0936 17.7706C49.8166 18.0817 49.6781 18.4929 49.6781 19.0043V25H47.0382V18.8764C47.0382 18.3949 46.8997 18.0114 46.6227 17.7259C46.35 17.4403 45.9899 17.2976 45.5424 17.2976C45.2399 17.2976 44.9672 17.3743 44.7243 17.5277C44.4856 17.6768 44.296 17.8878 44.1554 18.1605C44.0147 18.429 43.9444 18.7443 43.9444 19.1065V25H41.2214ZM62.1138 25.1918C61.1039 25.1918 60.2346 24.9872 59.5059 24.5781C58.7814 24.1648 58.2232 23.581 57.8311 22.8267C57.4391 22.0682 57.2431 21.1712 57.2431 20.1357C57.2431 19.1257 57.4391 18.2393 57.8311 17.4766C58.2232 16.7138 58.775 16.1193 59.4867 15.6932C60.2026 15.267 61.0421 15.054 62.0051 15.054C62.6529 15.054 63.2559 15.1584 63.8141 15.3672C64.3766 15.5717 64.8667 15.8807 65.2843 16.294C65.7061 16.7074 66.0343 17.2273 66.2686 17.8537C66.503 18.4759 66.6202 19.2045 66.6202 20.0398V20.7876H58.3297V19.1001H64.057C64.057 18.7081 63.9718 18.3608 63.8013 18.0582C63.6309 17.7557 63.3944 17.5192 63.0918 17.3487C62.7935 17.174 62.4462 17.0866 62.0499 17.0866C61.6365 17.0866 61.2701 17.1825 60.9505 17.3743C60.6351 17.5618 60.388 17.8153 60.209 18.1349C60.03 18.4503 59.9384 18.8018 59.9341 19.1896V20.794C59.9341 21.2798 60.0236 21.6996 60.2026 22.0533C60.3858 22.407 60.6436 22.6797 60.976 22.8714C61.3084 23.0632 61.7026 23.1591 62.1586 23.1591C62.4611 23.1591 62.7381 23.1165 62.9895 23.0312C63.2409 22.946 63.4561 22.8182 63.6351 22.6477C63.8141 22.4773 63.9505 22.2685 64.0442 22.0213L66.5627 22.1875C66.4348 22.7926 66.1728 23.321 65.7765 23.7727C65.3844 24.2202 64.8773 24.5696 64.2551 24.821C63.6373 25.0682 62.9235 25.1918 62.1138 25.1918ZM75.5499 15.674C75.4988 15.1584 75.2793 14.7578 74.8915 14.4723C74.5037 14.1868 73.9775 14.044 73.3127 14.044C72.861 14.044 72.4796 14.108 72.1685 14.2358C71.8574 14.3594 71.6188 14.532 71.4526 14.7536C71.2907 14.9751 71.2097 15.2266 71.2097 15.5078C71.2012 15.7422 71.2502 15.9467 71.3567 16.1214C71.4675 16.2962 71.6188 16.4474 71.8105 16.5753C72.0023 16.6989 72.2239 16.8075 72.4753 16.9013C72.7267 16.9908 72.9952 17.0675 73.2807 17.1314L74.4569 17.4126C75.0279 17.5405 75.552 17.7109 76.0293 17.924C76.5066 18.1371 76.9199 18.3991 77.2694 18.7102C77.6188 19.0213 77.8894 19.3878 78.0811 19.8097C78.2772 20.2315 78.3773 20.7152 78.3816 21.2607C78.3773 22.0618 78.1728 22.7564 77.7679 23.3445C77.3674 23.9283 76.7878 24.3821 76.0293 24.706C75.275 25.0256 74.3652 25.1854 73.2999 25.1854C72.2431 25.1854 71.3226 25.0234 70.5385 24.6996C69.7587 24.3757 69.1493 23.8963 68.7104 23.2614C68.2757 22.6222 68.0478 21.8317 68.0265 20.8899H70.7047C70.7346 21.3288 70.8603 21.6953 71.0819 21.9893C71.3077 22.2791 71.6081 22.4986 71.9831 22.6477C72.3624 22.7926 72.7907 22.8651 73.2679 22.8651C73.7367 22.8651 74.1436 22.7969 74.4888 22.6605C74.8382 22.5241 75.1088 22.3345 75.3006 22.0916C75.4924 21.8487 75.5882 21.5696 75.5882 21.2543C75.5882 20.9602 75.5009 20.7131 75.3262 20.5128C75.1557 20.3125 74.9043 20.142 74.5719 20.0014C74.2438 19.8608 73.8411 19.733 73.3638 19.6179L71.9384 19.2599C70.8347 18.9915 69.9632 18.5717 69.324 18.0007C68.6848 17.4297 68.3674 16.6605 68.3716 15.6932C68.3674 14.9006 68.5783 14.2081 69.0044 13.6158C69.4348 13.0234 70.025 12.5611 70.775 12.2287C71.525 11.8963 72.3773 11.7301 73.3319 11.7301C74.3034 11.7301 75.1515 11.8963 75.8759 12.2287C76.6046 12.5611 77.1713 13.0234 77.5762 13.6158C77.981 14.2081 78.1898 14.8942 78.2026 15.674H75.5499ZM85.4144 15.1818V17.2273H79.5018V15.1818H85.4144ZM80.8441 12.8295H83.5671V21.983C83.5671 22.2344 83.6055 22.4304 83.6822 22.571C83.7589 22.7074 83.8654 22.8033 84.0018 22.8587C84.1424 22.9141 84.3043 22.9418 84.4876 22.9418C84.6154 22.9418 84.7433 22.9311 84.8711 22.9098C84.9989 22.8842 85.0969 22.8651 85.1651 22.8523L85.5934 24.8786C85.457 24.9212 85.2653 24.9702 85.0181 25.0256C84.771 25.0852 84.4705 25.1214 84.1168 25.1342C83.4606 25.1598 82.8853 25.0724 82.391 24.8722C81.9009 24.6719 81.5195 24.3608 81.2468 23.9389C80.9741 23.517 80.8398 22.9844 80.8441 22.3409V12.8295ZM91.5188 25.1918C90.5259 25.1918 89.6673 24.9808 88.9428 24.5589C88.2227 24.1328 87.6665 23.5405 87.2745 22.782C86.8825 22.0192 86.6864 21.1349 86.6864 20.1293C86.6864 19.1151 86.8825 18.2287 87.2745 17.4702C87.6665 16.7074 88.2227 16.1151 88.9428 15.6932C89.6673 15.267 90.5259 15.054 91.5188 15.054C92.5117 15.054 93.3683 15.267 94.0884 15.6932C94.8129 16.1151 95.3711 16.7074 95.7631 17.4702C96.1552 18.2287 96.3512 19.1151 96.3512 20.1293C96.3512 21.1349 96.1552 22.0192 95.7631 22.782C95.3711 23.5405 94.8129 24.1328 94.0884 24.5589C93.3683 24.9808 92.5117 25.1918 91.5188 25.1918ZM91.5316 23.0824C91.9833 23.0824 92.3604 22.9545 92.663 22.6989C92.9656 22.4389 93.1935 22.0852 93.3469 21.6378C93.5046 21.1903 93.5835 20.6811 93.5835 20.1101C93.5835 19.5391 93.5046 19.0298 93.3469 18.5824C93.1935 18.1349 92.9656 17.7812 92.663 17.5213C92.3604 17.2614 91.9833 17.1314 91.5316 17.1314C91.0756 17.1314 90.6921 17.2614 90.381 17.5213C90.0742 17.7812 89.842 18.1349 89.6843 18.5824C89.5309 19.0298 89.4542 19.5391 89.4542 20.1101C89.4542 20.6811 89.5309 21.1903 89.6843 21.6378C89.842 22.0852 90.0742 22.4389 90.381 22.6989C90.6921 22.9545 91.0756 23.0824 91.5316 23.0824ZM98.1218 25V15.1818H100.762V16.8949H100.864C101.043 16.2855 101.343 15.8253 101.765 15.5142C102.187 15.1989 102.673 15.0412 103.223 15.0412C103.359 15.0412 103.506 15.0497 103.664 15.0668C103.821 15.0838 103.96 15.1072 104.079 15.1371V17.5533C103.951 17.5149 103.775 17.4808 103.549 17.451C103.323 17.4212 103.116 17.4062 102.929 17.4062C102.528 17.4062 102.17 17.4936 101.855 17.6683C101.544 17.8388 101.297 18.0774 101.113 18.3842C100.934 18.6911 100.845 19.0447 100.845 19.4453V25H98.1218ZM109.504 25.1918C108.494 25.1918 107.625 24.9872 106.896 24.5781C106.172 24.1648 105.614 23.581 105.222 22.8267C104.83 22.0682 104.634 21.1712 104.634 20.1357C104.634 19.1257 104.83 18.2393 105.222 17.4766C105.614 16.7138 106.166 16.1193 106.877 15.6932C107.593 15.267 108.433 15.054 109.396 15.054C110.044 15.054 110.646 15.1584 111.205 15.3672C111.767 15.5717 112.257 15.8807 112.675 16.294C113.097 16.7074 113.425 17.2273 113.659 17.8537C113.894 18.4759 114.011 19.2045 114.011 20.0398V20.7876H105.72V19.1001H111.448C111.448 18.7081 111.362 18.3608 111.192 18.0582C111.021 17.7557 110.785 17.5192 110.482 17.3487C110.184 17.174 109.837 17.0866 109.441 17.0866C109.027 17.0866 108.661 17.1825 108.341 17.3743C108.026 17.5618 107.779 17.8153 107.6 18.1349C107.421 18.4503 107.329 18.8018 107.325 19.1896V20.794C107.325 21.2798 107.414 21.6996 107.593 22.0533C107.776 22.407 108.034 22.6797 108.367 22.8714C108.699 23.0632 109.093 23.1591 109.549 23.1591C109.852 23.1591 110.129 23.1165 110.38 23.0312C110.632 22.946 110.847 22.8182 111.026 22.6477C111.205 22.4773 111.341 22.2685 111.435 22.0213L113.953 22.1875C113.825 22.7926 113.563 23.321 113.167 23.7727C112.775 24.2202 112.268 24.5696 111.646 24.821C111.028 25.0682 110.314 25.1918 109.504 25.1918Z" fill="#F5F5F5"/>
</svg>
