<svg width="20" height="14" viewBox="0 0 20 14" fill="none" xmlns="http://www.w3.org/2000/svg">
<path d="M12.9958 0C16.8618 0 19.9958 3.13401 19.9958 7C19.9958 10.7855 16.991 13.8691 13.2364 13.9959L12.9958 14H7C3.134 14 0 10.866 0 7C0 3.21455 3.00478 0.1309 6.75935 0.00405979L7 0H12.9958ZM12.7479 7.5C12.0575 7.5 11.4979 8.0596 11.4979 8.75C11.4979 9.4404 12.0575 10 12.7479 10C13.4382 10 13.9979 9.4404 13.9979 8.75C13.9979 8.0596 13.4382 7.5 12.7479 7.5ZM5.99788 4C5.61818 4 5.30439 4.28215 5.25473 4.64823L5.24788 4.75V6.248L3.74788 6.2487C3.33367 6.2487 2.99788 6.5845 2.99788 6.9987C2.99788 7.3784 3.28003 7.6922 3.64611 7.7419L3.74788 7.7487L5.24788 7.748V9.25C5.24788 9.6642 5.58367 10 5.99788 10C6.37758 10 6.69137 9.7178 6.74103 9.3518L6.74788 9.25V7.748L8.24789 7.7487C8.66209 7.7487 8.99789 7.413 8.99789 6.9987C8.99789 6.6191 8.71569 6.3053 8.34969 6.2556L8.24789 6.2487L6.74788 6.248V4.75C6.74788 4.33579 6.41209 4 5.99788 4ZM14.7479 4C14.0575 4 13.4979 4.55964 13.4979 5.25C13.4979 5.9404 14.0575 6.5 14.7479 6.5C15.4382 6.5 15.9979 5.9404 15.9979 5.25C15.9979 4.55964 15.4382 4 14.7479 4Z" fill="#8E8E8E"/>
</svg>
