<svg width="20" height="20" viewBox="0 0 20 20" fill="none" xmlns="http://www.w3.org/2000/svg">
<path d="M9.44589 12.5C9.44589 11.4261 8.57533 10.5556 7.5014 10.5556H5.27918C4.2053 10.5556 3.33473 11.4261 3.33473 12.5V14.7222C3.33473 15.7961 4.2053 16.6667 5.27918 16.6667H7.5014C8.57533 16.6667 9.44589 15.7961 9.44589 14.7222V12.5ZM16.6652 12.5C16.6652 11.4261 15.7947 10.5556 14.7208 10.5556H12.4986C11.4247 10.5556 10.5541 11.4261 10.5541 12.5V14.7222C10.5541 15.7961 11.4247 16.6667 12.4986 16.6667H14.7208C15.7947 16.6667 16.6652 15.7961 16.6652 14.7222V12.5ZM9.44444 5.27778C9.44444 4.20389 8.57389 3.33333 7.5 3.33333H5.27778C4.20389 3.33333 3.33333 4.20389 3.33333 5.27778V7.5C3.33333 8.57389 4.20389 9.44444 5.27778 9.44444H7.5C8.57389 9.44444 9.44444 8.57389 9.44444 7.5V5.27778ZM16.6639 5.27778C16.6639 4.20389 15.7933 3.33333 14.7194 3.33333H12.4972C11.4233 3.33333 10.5528 4.20389 10.5528 5.27778V7.5C10.5528 8.57389 11.4233 9.44444 12.4972 9.44444H14.7194C15.7933 9.44444 16.6639 8.57389 16.6639 7.5V5.27778ZM3.61111 0C1.61674 0 0 1.61674 0 3.61111V16.3889C0 18.3832 1.61674 20 3.61111 20H16.3889C18.3832 20 20 18.3832 20 16.3889V3.61111C20 1.61674 18.3832 0 16.3889 0H3.61111ZM1.66667 3.61111C1.66667 2.53722 2.53722 1.66667 3.61111 1.66667H16.3889C17.4628 1.66667 18.3333 2.53722 18.3333 3.61111V16.3889C18.3333 17.4628 17.4628 18.3333 16.3889 18.3333H3.61111C2.53722 18.3333 1.66667 17.4628 1.66667 16.3889V3.61111Z" fill="#F5F5F5"/>
</svg>
