<svg width="18" height="18" viewBox="0 0 18 18" fill="none" xmlns="http://www.w3.org/2000/svg">
<path d="M10.4508 0.502351C9.6128 -0.16745 8.3872 -0.16745 7.5492 0.502351L0.79916 5.89727C0.29241 6.30229 0 6.89842 0 7.52654V16.3421C0 17.2577 0.7835 18 1.75 18H4.75C5.7165 18 6.5 17.2577 6.5 16.3421V12.5501C6.5 11.9065 7.0418 11.3829 7.7169 11.3662H10.2831C10.9582 11.3829 11.5 11.9065 11.5 12.5501V16.3421C11.5 17.2577 12.2835 18 13.25 18H16.25C17.2165 18 18 17.2577 18 16.3421V7.52654C18 6.89842 17.7076 6.30229 17.2008 5.89727L10.4508 0.502351Z" fill="#F5F5F5"/>
</svg>
