<svg width="18" height="18" viewBox="0 0 18 18" fill="none" xmlns="http://www.w3.org/2000/svg">
<path d="M0 0.75C0 0.33579 0.33579 0 0.75 0H1.30826C2.25873 0 2.82782 0.63899 3.15325 1.23299C3.37016 1.62894 3.52708 2.08818 3.64982 2.50395C3.68306 2.50134 3.71674 2.5 3.7508 2.5H16.2481C17.0783 2.5 17.6778 3.29442 17.4502 4.0928L15.6224 10.5019C15.2856 11.6832 14.2062 12.4978 12.9779 12.4978H7.02977C5.79128 12.4978 4.7056 11.6699 4.37783 10.4756L3.61734 7.7045L2.35874 3.45578L2.3567 3.44834C2.201 2.88051 2.05487 2.35005 1.83773 1.9537C1.62686 1.5688 1.45877 1.5 1.30826 1.5H0.75C0.33579 1.5 0 1.16421 0 0.75ZM6.5 17.5C7.6046 17.5 8.5 16.6046 8.5 15.5C8.5 14.3954 7.6046 13.5 6.5 13.5C5.39543 13.5 4.5 14.3954 4.5 15.5C4.5 16.6046 5.39543 17.5 6.5 17.5ZM13.5 17.5C14.6046 17.5 15.5 16.6046 15.5 15.5C15.5 14.3954 14.6046 13.5 13.5 13.5C12.3954 13.5 11.5 14.3954 11.5 15.5C11.5 16.6046 12.3954 17.5 13.5 17.5Z" fill="#D9D9D9"/>
</svg>
