<svg width="20" height="16" viewBox="0 0 20 16" fill="none" xmlns="http://www.w3.org/2000/svg">
<path d="M14.75 0C15.9409 0 16.9156 0.92516 16.9948 2.09595L17 2.25V13.5C17 13.7761 17.2239 14 17.5 14C17.7455 14 17.9496 13.8231 17.9919 13.5899L18 13.5L18.0006 3.01379C19.0717 3.13248 19.9161 4.00311 19.9941 5.08604L20 5.25V12.75C20 14.483 18.6435 15.8992 16.9344 15.9949L16.75 16H3.25C1.51697 16 0.10075 14.6435 0.00514007 12.9344L0 12.75V2.25C0 1.05914 0.92516 0.0843599 2.09595 0.0051899L2.25 0H14.75ZM7.24776 7H3.74776C3.33355 7 2.99776 7.3358 2.99776 7.75V11.25C2.99776 11.6642 3.33355 12 3.74776 12H7.24776C7.66197 12 7.99776 11.6642 7.99776 11.25V7.75C7.99776 7.3358 7.66197 7 7.24776 7ZM13.2522 10.5H10.7539L10.6522 10.5068C10.2861 10.5565 10.0039 10.8703 10.0039 11.25C10.0039 11.6642 10.3397 12 10.7539 12H13.2522L13.354 11.9932C13.7201 11.9435 14.0022 11.6297 14.0022 11.25C14.0022 10.8358 13.6665 10.5 13.2522 10.5ZM6.49776 8.5V10.5H4.49776V8.5H6.49776ZM13.2509 7L10.7526 7.0045L10.6508 7.0115C10.2848 7.0618 10.0032 7.3761 10.0039 7.7558C10.0047 8.17 10.3411 8.5052 10.7553 8.5045L13.2536 8.5L13.3553 8.493C13.7213 8.4427 14.0029 8.1284 14.0022 7.7487C14.0015 7.3344 13.6651 6.9993 13.2509 7ZM13.2522 3.50448H3.74776L3.64599 3.51132C3.27991 3.56099 2.99776 3.87478 2.99776 4.25448C2.99776 4.66869 3.33355 5.00448 3.74776 5.00448H13.2522L13.354 4.99763C13.7201 4.94797 14.0022 4.63417 14.0022 4.25448C14.0022 3.84026 13.6665 3.50448 13.2522 3.50448Z" fill="#F5F5F5"/>
</svg>
