<svg width="20" height="20" viewBox="0 0 20 20" fill="none" xmlns="http://www.w3.org/2000/svg">
<path d="M10.0114 0C10.7954 0.00867695 11.5764 0.0956516 12.3416 0.259529C12.6756 0.331068 12.9255 0.598473 12.9634 0.925089L13.1452 2.49109C13.2275 3.21012 13.8598 3.75472 14.6135 3.75548C14.8161 3.75578 15.0165 3.71527 15.2037 3.63573L16.6998 3.00468C17.011 2.87343 17.3746 2.94499 17.6068 3.18321C18.688 4.29195 19.4932 5.62171 19.9619 7.07241C20.0629 7.38523 19.9466 7.72518 19.6721 7.91951L18.346 8.85807C17.9676 9.12495 17.7443 9.54874 17.7443 9.99951C17.7443 10.4502 17.9676 10.874 18.3468 11.1415L19.674 12.0803C19.9486 12.2746 20.0651 12.6146 19.964 12.9275C19.4955 14.378 18.6908 15.7076 17.6102 16.8166C17.3782 17.0547 17.0149 17.1265 16.7038 16.9955L15.2016 16.3636C14.7718 16.183 14.2783 16.2095 13.8721 16.4349C13.4659 16.6602 13.1957 17.0577 13.1441 17.5054L12.9635 19.0712C12.9262 19.3941 12.6818 19.6597 12.3526 19.7349C10.8055 20.0884 9.19351 20.0884 7.64631 19.7349C7.31719 19.6597 7.07273 19.3941 7.03548 19.0712L6.85516 17.5077C6.80219 17.0609 6.53148 16.6647 6.12567 16.44C5.71986 16.2154 5.22711 16.1891 4.79877 16.3687L3.29627 17.0007C2.98506 17.1316 2.62168 17.0598 2.38962 16.8215C1.30847 15.7113 0.503684 14.38 0.0358398 12.928C-0.0649306 12.6153 0.0514992 12.2755 0.326006 12.0814L1.65408 11.1419C2.03236 10.875 2.25577 10.4512 2.25577 10.0005C2.25577 9.54977 2.03236 9.12597 1.65358 8.85879L0.326337 7.92089C0.051435 7.72663 -0.0651015 7.38646 0.0360214 7.07343C0.504677 5.62273 1.30988 4.29297 2.39106 3.18423C2.62334 2.94602 2.98689 2.87446 3.29805 3.00571L4.79388 3.63665C5.22429 3.81802 5.7191 3.79062 6.12711 3.56174C6.53335 3.33549 6.80381 2.93767 6.85602 2.48989L7.03768 0.925089C7.07563 0.598309 7.32568 0.330811 7.65995 0.259426C8.42614 0.0958156 9.20793 0.00887182 10.0114 0ZM9.99805 6.92304C8.22821 6.92304 6.79357 8.30064 6.79357 10C6.79357 11.6993 8.22821 13.077 9.99805 13.077C11.7678 13.077 13.2025 11.6993 13.2025 10C13.2025 8.30064 11.7678 6.92304 9.99805 6.92304Z" fill="#F5F5F5"/>
</svg>
