<svg width="20" height="18" viewBox="0 0 20 18" fill="none" xmlns="http://www.w3.org/2000/svg">
<path d="M8.1 18C7.60295 18 7.2 17.597 7.2 17.1C7.2 16.603 7.60295 16.2 8.1 16.2H15.6C16.9255 16.2 18 15.1255 18 13.8V4.2C18 2.87452 16.9255 1.8 15.6 1.8H8.1C7.60295 1.8 7.2 1.39705 7.2 0.9C7.2 0.402948 7.60295 0 8.1 0H15.6C17.9196 0 19.8 1.8804 19.8 4.2V13.8C19.8 16.1196 17.9196 18 15.6 18H8.1ZM8.08955 4.43868C8.45479 4.10154 9.02418 4.12432 9.36132 4.48955L12.9613 8.38955C13.2796 8.73431 13.2796 9.26568 12.9613 9.61044L9.36132 13.5104C9.02418 13.8757 8.45479 13.8985 8.08955 13.5613C7.7243 13.2242 7.70153 12.6548 8.03868 12.2896L10.2444 9.9H0.9C0.402948 9.9 0 9.49704 0 9C0 8.50295 0.402948 8.1 0.9 8.1H10.2444L8.03868 5.71045C7.70153 5.34522 7.7243 4.77582 8.08955 4.43868Z" fill="#D9D9D9"/>
</svg>
