<svg width="18" height="20" viewBox="0 0 18 20" fill="none" xmlns="http://www.w3.org/2000/svg">
<path d="M15.498 6.99609C15.8356 6.99609 16.1621 6.94828 16.471 6.85907C16.4889 7.07034 16.498 7.2841 16.498 7.5V11.4985L17.9163 14.6586C17.9712 14.7809 17.9996 14.9135 17.9996 15.0476C17.9996 15.5723 17.5743 15.9976 17.0496 15.9976H0.950237C0.816447 15.9976 0.684177 15.9694 0.562067 15.9147C0.0831966 15.7003 -0.131223 15.1383 0.0831567 14.6594L1.49806 11.4989L1.49816 7.48708L1.50258 7.23716C1.64165 3.20644 4.95393 0 8.99805 0C10.4413 0 11.7895 0.40771 12.9335 1.11424C12.353 1.73895 11.998 2.57606 11.998 3.49609C11.998 5.42909 13.565 6.99609 15.498 6.99609ZM11.9563 16.9991C11.7176 18.4172 10.484 19.4976 8.99805 19.4976C7.51205 19.4976 6.27842 18.4172 6.03978 16.9991H11.9563ZM15.498 5.99609C16.8787 5.99609 17.998 4.8768 17.998 3.49609C17.998 2.11538 16.8787 0.99609 15.498 0.99609C14.1173 0.99609 12.998 2.11538 12.998 3.49609C12.998 4.8768 14.1173 5.99609 15.498 5.99609Z" fill="#D9D9D9"/>
</svg>
