<svg width="16" height="21" viewBox="0 0 16 21" fill="none" xmlns="http://www.w3.org/2000/svg">
<path d="M6.15109 13.7734C6.14809 13.7662 6.14519 13.7591 6.14219 13.7519C6.00649 13.7147 5.87231 13.6735 5.73995 13.6285C5.73678 13.6274 5.7336 13.6263 5.73042 13.6252C5.25831 13.4638 4.80893 13.2533 4.38838 12.9999C2.35562 11.775 0.99609 9.5463 0.99609 7C0.99609 3.13401 4.1301 0 7.99609 0C11.6091 0 14.5828 2.73729 14.9565 6.25118C15.0003 6.66307 14.6603 7 14.2461 7C13.8319 7 13.5015 6.66235 13.4457 6.25192C13.0807 3.56822 10.7799 1.5 7.99609 1.5C4.95852 1.5 2.49609 3.96243 2.49609 7C2.49609 9.3965 4.02883 11.435 6.16749 12.1887C6.47869 11.4884 7.18029 11 7.99609 11C9.10059 11 9.99609 11.8954 9.99609 12.9999C9.99609 14.1045 9.10069 15 7.99609 15C7.16569 15 6.45349 14.4939 6.15109 13.7734ZM5.12571 15.0027C3.93522 14.5756 2.86751 13.8905 1.9902 13.0146C0.87001 13.1429 0 14.0943 0 15.2488V16.1688C0 16.7408 0.1784 17.2987 0.51036 17.7646C2.05252 19.9289 4.57549 21.0011 7.99649 21.0011C11.4167 21.0011 13.941 19.9294 15.4869 17.7661C15.8203 17.2996 15.9995 16.7406 15.9995 16.1673V15.2488C15.9995 14.0068 14.9927 12.9999 13.7506 12.9999H11.4961C11.4961 14.9329 9.92909 16.5 7.99609 16.5C6.80629 16.5 5.75746 15.9066 5.12571 15.0027ZM11.9961 7C11.9961 5.76883 11.4399 4.66758 10.565 3.93383C9.86989 3.35102 8.97369 3 7.99609 3C5.78695 3 3.99609 4.79086 3.99609 7C3.99609 7.60915 4.13236 8.18695 4.37627 8.70425C4.68375 9.3562 5.16217 9.9117 5.75371 10.3128C6.36039 9.8059 7.14189 9.5 7.99609 9.5C8.84939 9.5 9.63129 9.8053 10.2387 10.3127C11.2992 9.5934 11.9961 8.37806 11.9961 7Z" fill="#8E8E8E"/>
</svg>
