<svg width="48" height="8" viewBox="0 0 48 8" fill="none" xmlns="http://www.w3.org/2000/svg">
<path d="M3.51568 0.314369C3.71379 -0.104788 4.2862 -0.104792 4.48431 0.314369L5.42766 2.31023L7.53699 2.63029C7.97998 2.6975 8.15685 3.26596 7.83632 3.59222L6.30996 5.14577L6.6703 7.33947C6.74595 7.80016 6.28287 8.15148 5.88665 7.93396L3.99999 6.89825L2.11334 7.93396C1.71712 8.15148 1.25403 7.80016 1.32971 7.33947L1.69003 5.14577L0.16369 3.59222C-0.156861 3.26596 0.0200234 2.6975 0.463013 2.63029L2.57236 2.31023L3.51568 0.314369Z" fill="#FFCB00"/>
<path d="M13.5157 0.314369C13.7138 -0.104788 14.2862 -0.104792 14.4843 0.314369L15.4277 2.31023L17.537 2.63029C17.98 2.6975 18.1569 3.26596 17.8363 3.59222L16.31 5.14577L16.6703 7.33947C16.7459 7.80016 16.2829 8.15148 15.8867 7.93396L14 6.89825L12.1133 7.93396C11.7171 8.15148 11.254 7.80016 11.3297 7.33947L11.69 5.14577L10.1637 3.59222C9.84314 3.26596 10.02 2.6975 10.463 2.63029L12.5724 2.31023L13.5157 0.314369Z" fill="#FFCB00"/>
<path d="M23.5157 0.314369C23.7138 -0.104788 24.2862 -0.104792 24.4843 0.314369L25.4277 2.31023L27.537 2.63029C27.98 2.6975 28.1569 3.26596 27.8363 3.59222L26.31 5.14577L26.6703 7.33947C26.7459 7.80016 26.2829 8.15148 25.8867 7.93396L24 6.89825L22.1133 7.93396C21.7171 8.15148 21.254 7.80016 21.3297 7.33947L21.69 5.14577L20.1637 3.59222C19.8431 3.26596 20.02 2.6975 20.463 2.63029L22.5724 2.31023L23.5157 0.314369Z" fill="#FFCB00"/>
<path d="M33.5157 0.314369C33.7138 -0.104788 34.2862 -0.104792 34.4843 0.314369L35.4277 2.31023L37.537 2.63029C37.98 2.6975 38.1569 3.26596 37.8363 3.59222L36.31 5.14577L36.6703 7.33947C36.7459 7.80016 36.2829 8.15148 35.8867 7.93396L34 6.89825L32.1133 7.93396C31.7171 8.15148 31.254 7.80016 31.3297 7.33947L31.69 5.14577L30.1637 3.59222C29.8431 3.26596 30.02 2.6975 30.463 2.63029L32.5724 2.31023L33.5157 0.314369Z" fill="#FFCB00"/>
<path d="M43.5157 0.314369C43.7138 -0.104788 44.2862 -0.104792 44.4843 0.314369L45.4277 2.31023L47.537 2.63029C47.98 2.6975 48.1569 3.26596 47.8363 3.59222L46.31 5.14577L46.6703 7.33947C46.7459 7.80016 46.2829 8.15148 45.8867 7.93396L44 6.89825L42.1133 7.93396C41.7171 8.15148 41.254 7.80016 41.3297 7.33947L41.69 5.14577L40.1637 3.59222C39.8431 3.26596 40.02 2.6975 40.463 2.63029L42.5724 2.31023L43.5157 0.314369Z" fill="#FFCB00"/>
</svg>
