<svg width="8" height="8" viewBox="0 0 8 8" fill="none" xmlns="http://www.w3.org/2000/svg">
<path d="M3.51568 0.314369C3.71379 -0.104788 4.2862 -0.104792 4.48431 0.314369L5.42766 2.31023L7.53699 2.63029C7.97998 2.6975 8.15685 3.26596 7.83632 3.59222L6.30996 5.14577L6.6703 7.33947C6.74595 7.80016 6.28287 8.15148 5.88665 7.93396L3.99999 6.89825L2.11334 7.93396C1.71712 8.15148 1.25403 7.80016 1.32971 7.33947L1.69003 5.14577L0.16369 3.59222C-0.156861 3.26596 0.0200234 2.6975 0.463013 2.63029L2.57236 2.31023L3.51568 0.314369Z" fill="#8E8E8E"/>
<path d="M3.99998 1.12279e-07C4.00006 1.12279e-07 3.9999 1.12279e-07 3.99998 1.12279e-07C3.80726 -0.000125211 3.61422 0.104662 3.5151 0.314369L2.57194 2.31023L0.462938 2.63028C0.0200201 2.6975 -0.156835 3.26596 0.163663 3.59222L1.68975 5.14577L1.32949 7.33946C1.2696 7.70411 1.5472 8.00025 1.86201 8C1.94516 8.00004 2.03093 7.97945 2.11378 7.93395L3.99974 6.89845L3.99998 1.12279e-07Z" fill="#FFCB00"/>
</svg>
