<svg width="117" height="30" viewBox="0 0 117 30" fill="none" xmlns="http://www.w3.org/2000/svg">
<rect x="0.5" y="0.5" width="116" height="29" rx="11.5" fill="#F5F5F5" stroke="black"/>
<path d="M23.9105 12.9584C23.831 12.6819 23.7192 12.4375 23.5753 12.2254C23.4313 12.0095 23.2552 11.8277 23.0469 11.68C22.8423 11.5284 22.6075 11.4129 22.3423 11.3334C22.081 11.2538 21.7912 11.2141 21.473 11.2141C20.8783 11.2141 20.3556 11.3618 19.9048 11.6572C19.4578 11.9527 19.1094 12.3826 18.8594 12.947C18.6094 13.5076 18.4844 14.1932 18.4844 15.0038C18.4844 15.8144 18.6075 16.5038 18.8537 17.072C19.0999 17.6402 19.4484 18.0739 19.8991 18.3731C20.3499 18.6686 20.8821 18.8163 21.4957 18.8163C22.0525 18.8163 22.5279 18.7178 22.9219 18.5209C23.3196 18.3201 23.6226 18.0379 23.831 17.6743C24.0431 17.3106 24.1491 16.8807 24.1491 16.3845L24.6491 16.4584H21.6491V14.6061H26.5185V16.072C26.5185 17.0947 26.3025 17.9735 25.8707 18.7084C25.4389 19.4394 24.8442 20.0038 24.0866 20.4016C23.3291 20.7955 22.4616 20.9925 21.4844 20.9925C20.3935 20.9925 19.4351 20.7519 18.6094 20.2709C17.7836 19.786 17.1397 19.0985 16.6775 18.2084C16.2192 17.3144 15.99 16.2538 15.99 15.0266C15.99 14.0834 16.1264 13.2425 16.3991 12.5038C16.6757 11.7614 17.062 11.1326 17.5582 10.6175C18.0544 10.1023 18.6321 9.71027 19.2912 9.44133C19.9503 9.17239 20.6643 9.03792 21.4332 9.03792C22.0923 9.03792 22.706 9.13451 23.2741 9.32769C23.8423 9.51709 24.3461 9.78603 24.7855 10.1345C25.2287 10.483 25.5904 10.8978 25.8707 11.3788C26.151 11.8561 26.331 12.3826 26.4105 12.9584H23.9105ZM30.8096 20.9981C30.2528 20.9981 29.7566 20.9016 29.321 20.7084C28.8854 20.5114 28.5407 20.2216 28.2869 19.8391C28.0369 19.4527 27.9119 18.9716 27.9119 18.3959C27.9119 17.911 28.0009 17.5038 28.179 17.1743C28.357 16.8447 28.5994 16.5796 28.9062 16.3788C29.2131 16.1781 29.5615 16.0266 29.9517 15.9243C30.3456 15.822 30.7585 15.75 31.1903 15.7084C31.6979 15.6553 32.107 15.6061 32.4176 15.5606C32.7282 15.5114 32.9536 15.4394 33.0937 15.3447C33.2339 15.25 33.304 15.1099 33.304 14.9243V14.8902C33.304 14.5303 33.1903 14.2519 32.9631 14.055C32.7396 13.858 32.4214 13.7595 32.0085 13.7595C31.5729 13.7595 31.2263 13.8561 30.9687 14.0493C30.7112 14.2387 30.5407 14.4773 30.4574 14.7652L28.2187 14.5834C28.3324 14.0531 28.5559 13.5947 28.8892 13.2084C29.2225 12.8182 29.6525 12.519 30.179 12.3106C30.7093 12.0985 31.3229 11.9925 32.0199 11.9925C32.5047 11.9925 32.9687 12.0493 33.4119 12.1629C33.8589 12.2766 34.2547 12.4527 34.5994 12.6913C34.9479 12.93 35.2225 13.2368 35.4233 13.6118C35.624 13.983 35.7244 14.4281 35.7244 14.947V20.8334H33.429V19.6231H33.3608C33.2206 19.8959 33.0331 20.1364 32.7983 20.3447C32.5634 20.5493 32.2812 20.7103 31.9517 20.8277C31.6221 20.9413 31.2415 20.9981 30.8096 20.9981ZM31.5028 19.3277C31.8589 19.3277 32.1733 19.2576 32.446 19.1175C32.7187 18.9735 32.9328 18.7803 33.0881 18.5379C33.2434 18.2955 33.321 18.0209 33.321 17.7141V16.7879C33.2453 16.8372 33.1411 16.8826 33.0085 16.9243C32.8797 16.9622 32.7339 16.9981 32.571 17.0322C32.4081 17.0625 32.2453 17.0909 32.0824 17.1175C31.9195 17.1402 31.7718 17.161 31.6392 17.18C31.3551 17.2216 31.107 17.2879 30.8949 17.3788C30.6828 17.4697 30.518 17.5928 30.4006 17.7481C30.2831 17.8997 30.2244 18.0891 30.2244 18.3163C30.2244 18.6459 30.3437 18.8978 30.5824 19.072C30.8248 19.2425 31.1316 19.3277 31.5028 19.3277ZM37.6023 20.8334V12.1061H39.9091V13.6459H40.0114C40.1932 13.1345 40.4962 12.7311 40.9204 12.4356C41.3447 12.1402 41.8523 11.9925 42.4432 11.9925C43.0417 11.9925 43.5511 12.1421 43.9716 12.4413C44.392 12.7368 44.6723 13.1383 44.8125 13.6459H44.9034C45.0814 13.1459 45.4034 12.7463 45.8693 12.447C46.339 12.144 46.8939 11.9925 47.5341 11.9925C48.3485 11.9925 49.0095 12.2519 49.517 12.7709C50.0284 13.286 50.2841 14.0171 50.2841 14.9641V20.8334H47.8693V15.4413C47.8693 14.9565 47.7405 14.5928 47.4829 14.3504C47.2254 14.108 46.9034 13.9868 46.517 13.9868C46.0776 13.9868 45.7348 14.1269 45.4886 14.4072C45.2424 14.6838 45.1193 15.0493 45.1193 15.5038V20.8334H42.7727V15.3902C42.7727 14.9622 42.6496 14.6213 42.4034 14.3675C42.161 14.1137 41.8409 13.9868 41.4432 13.9868C41.1742 13.9868 40.9318 14.055 40.7159 14.1913C40.5038 14.3239 40.3352 14.5114 40.2102 14.7538C40.0852 14.9925 40.0227 15.2728 40.0227 15.5947V20.8334H37.6023ZM56.1733 21.0038C55.2756 21.0038 54.5028 20.822 53.8551 20.4584C53.2112 20.0909 52.715 19.572 52.3665 18.9016C52.018 18.2273 51.8437 17.43 51.8437 16.5095C51.8437 15.6118 52.018 14.8239 52.3665 14.1459C52.715 13.4678 53.2055 12.9394 53.8381 12.5606C54.4744 12.1819 55.2206 11.9925 56.0767 11.9925C56.6525 11.9925 57.1884 12.0853 57.6846 12.2709C58.1846 12.4527 58.6203 12.7273 58.9915 13.0947C59.3665 13.4622 59.6581 13.9243 59.8665 14.4811C60.0748 15.0341 60.179 15.6819 60.179 16.4243V17.0891H52.8096V15.5891H57.9006C57.9006 15.2406 57.8248 14.9319 57.6733 14.6629C57.5218 14.394 57.3115 14.1838 57.0426 14.0322C56.7775 13.8769 56.4687 13.7993 56.1165 13.7993C55.749 13.7993 55.4233 13.8845 55.1392 14.055C54.8589 14.2216 54.6392 14.447 54.4801 14.7311C54.321 15.0114 54.2396 15.3239 54.2358 15.6686V17.0947C54.2358 17.5266 54.3153 17.8997 54.4744 18.2141C54.6373 18.5284 54.8665 18.7709 55.1619 18.9413C55.4574 19.1118 55.8078 19.197 56.2131 19.197C56.482 19.197 56.7282 19.1591 56.9517 19.0834C57.1752 19.0076 57.3665 18.894 57.5256 18.7425C57.6846 18.5909 57.8059 18.4053 57.8892 18.1856L60.1278 18.3334C60.0142 18.8713 59.7812 19.3409 59.429 19.7425C59.0805 20.1402 58.6297 20.4508 58.0767 20.6743C57.5275 20.894 56.893 21.0038 56.1733 21.0038ZM68.1165 12.5436C68.071 12.0853 67.8759 11.7292 67.5312 11.4754C67.1865 11.2216 66.7187 11.0947 66.1278 11.0947C65.7263 11.0947 65.3873 11.1516 65.1108 11.2652C64.8343 11.375 64.6221 11.5284 64.4744 11.7254C64.3305 11.9224 64.2585 12.1459 64.2585 12.3959C64.2509 12.6042 64.2945 12.786 64.3892 12.9413C64.4877 13.0966 64.6221 13.2311 64.7926 13.3447C64.9631 13.4546 65.16 13.5512 65.3835 13.6345C65.607 13.7141 65.8456 13.7822 66.0994 13.8391L67.1449 14.0891C67.6525 14.2027 68.1184 14.3542 68.5426 14.5436C68.9668 14.733 69.3343 14.9659 69.6449 15.2425C69.9555 15.519 70.196 15.8447 70.3665 16.2197C70.5407 16.5947 70.6297 17.0247 70.6335 17.5095C70.6297 18.2216 70.4479 18.8391 70.0881 19.3618C69.732 19.8807 69.2168 20.2841 68.5426 20.572C67.8721 20.8561 67.0634 20.9981 66.1165 20.9981C65.1771 20.9981 64.3589 20.8542 63.6619 20.5663C62.9687 20.2784 62.4271 19.8523 62.0369 19.2879C61.6506 18.7197 61.4479 18.0171 61.429 17.18H63.8096C63.8362 17.5701 63.9479 17.8959 64.1449 18.1572C64.3456 18.4148 64.6127 18.6099 64.946 18.7425C65.2831 18.8713 65.6638 18.9356 66.0881 18.9356C66.5047 18.9356 66.8665 18.875 67.1733 18.7538C67.4839 18.6326 67.7244 18.4641 67.8949 18.2481C68.0653 18.0322 68.1506 17.7841 68.1506 17.5038C68.1506 17.2425 68.0729 17.0228 67.9176 16.8447C67.7661 16.6667 67.5426 16.5152 67.2471 16.3902C66.9555 16.2652 66.5975 16.1516 66.1733 16.0493L64.9062 15.7311C63.9252 15.4925 63.1506 15.1194 62.5824 14.6118C62.0142 14.1042 61.732 13.4205 61.7358 12.5606C61.732 11.8561 61.9195 11.2406 62.2983 10.7141C62.6809 10.1875 63.2055 9.77656 63.8721 9.4811C64.5388 9.18565 65.2964 9.03792 66.1449 9.03792C67.0085 9.03792 67.7623 9.18565 68.4062 9.4811C69.054 9.77656 69.5578 10.1875 69.9176 10.7141C70.2775 11.2406 70.4631 11.8504 70.4744 12.5436H68.1165ZM76.8849 12.1061V13.9243H71.6293V12.1061H76.8849ZM72.8224 10.0152H75.2429V18.1516C75.2429 18.375 75.277 18.5493 75.3452 18.6743C75.4133 18.7955 75.508 18.8807 75.6293 18.93C75.7543 18.9792 75.8982 19.0038 76.0611 19.0038C76.1747 19.0038 76.2883 18.9944 76.402 18.9754C76.5156 18.9527 76.6027 18.9356 76.6633 18.9243L77.044 20.7254C76.9228 20.7633 76.7524 20.8069 76.5327 20.8561C76.313 20.9091 76.0459 20.9413 75.7315 20.9527C75.1482 20.9754 74.6368 20.8978 74.1974 20.7197C73.7618 20.5417 73.4228 20.2652 73.1804 19.8902C72.938 19.5152 72.8186 19.0417 72.8224 18.4697V10.0152ZM82.3111 21.0038C81.4285 21.0038 80.6652 20.8163 80.0213 20.4413C79.3811 20.0625 78.8868 19.536 78.5383 18.8618C78.1899 18.1838 78.0156 17.3978 78.0156 16.5038C78.0156 15.6023 78.1899 14.8144 78.5383 14.1402C78.8868 13.4622 79.3811 12.9356 80.0213 12.5606C80.6652 12.1819 81.4285 11.9925 82.3111 11.9925C83.1936 11.9925 83.955 12.1819 84.5952 12.5606C85.2391 12.9356 85.7353 13.4622 86.0838 14.1402C86.4323 14.8144 86.6065 15.6023 86.6065 16.5038C86.6065 17.3978 86.4323 18.1838 86.0838 18.8618C85.7353 19.536 85.2391 20.0625 84.5952 20.4413C83.955 20.8163 83.1936 21.0038 82.3111 21.0038ZM82.3224 19.1288C82.7239 19.1288 83.0592 19.0152 83.3281 18.7879C83.5971 18.5569 83.7997 18.2425 83.9361 17.8447C84.0762 17.447 84.1463 16.9944 84.1463 16.4868C84.1463 15.9792 84.0762 15.5266 83.9361 15.1288C83.7997 14.7311 83.5971 14.4167 83.3281 14.1856C83.0592 13.9546 82.7239 13.8391 82.3224 13.8391C81.9171 13.8391 81.5762 13.9546 81.2997 14.1856C81.027 14.4167 80.8205 14.7311 80.6804 15.1288C80.544 15.5266 80.4758 15.9792 80.4758 16.4868C80.4758 16.9944 80.544 17.447 80.6804 17.8447C80.8205 18.2425 81.027 18.5569 81.2997 18.7879C81.5762 19.0152 81.9171 19.1288 82.3224 19.1288ZM88.1804 20.8334V12.1061H90.527V13.6288H90.6179C90.777 13.0872 91.044 12.6781 91.419 12.4016C91.794 12.1213 92.2258 11.9811 92.7145 11.9811C92.8357 11.9811 92.9664 11.9887 93.1065 12.0038C93.2467 12.019 93.3698 12.0398 93.4758 12.0663V14.2141C93.3622 14.18 93.205 14.1497 93.0043 14.1231C92.8035 14.0966 92.6198 14.0834 92.4531 14.0834C92.0971 14.0834 91.7789 14.161 91.4986 14.3163C91.2221 14.4678 91.0024 14.68 90.8395 14.9527C90.6804 15.2254 90.6008 15.5398 90.6008 15.8959V20.8334H88.1804ZM98.2983 21.0038C97.4006 21.0038 96.6278 20.822 95.9801 20.4584C95.3362 20.0909 94.84 19.572 94.4915 18.9016C94.143 18.2273 93.9687 17.43 93.9687 16.5095C93.9687 15.6118 94.143 14.8239 94.4915 14.1459C94.84 13.4678 95.3305 12.9394 95.9631 12.5606C96.5994 12.1819 97.3456 11.9925 98.2017 11.9925C98.7775 11.9925 99.3134 12.0853 99.8096 12.2709C100.31 12.4527 100.745 12.7273 101.116 13.0947C101.491 13.4622 101.783 13.9243 101.991 14.4811C102.2 15.0341 102.304 15.6819 102.304 16.4243V17.0891H94.9346V15.5891H100.026C100.026 15.2406 99.9498 14.9319 99.7983 14.6629C99.6468 14.394 99.4365 14.1838 99.1676 14.0322C98.9025 13.8769 98.5937 13.7993 98.2415 13.7993C97.874 13.7993 97.5483 13.8845 97.2642 14.055C96.9839 14.2216 96.7642 14.447 96.6051 14.7311C96.446 15.0114 96.3646 15.3239 96.3608 15.6686V17.0947C96.3608 17.5266 96.4403 17.8997 96.5994 18.2141C96.7623 18.5284 96.9915 18.7709 97.2869 18.9413C97.5824 19.1118 97.9328 19.197 98.3381 19.197C98.607 19.197 98.8532 19.1591 99.0767 19.0834C99.3002 19.0076 99.4915 18.894 99.6506 18.7425C99.8096 18.5909 99.9309 18.4053 100.014 18.1856L102.253 18.3334C102.139 18.8713 101.906 19.3409 101.554 19.7425C101.205 20.1402 100.755 20.4508 100.202 20.6743C99.6525 20.894 99.018 21.0038 98.2983 21.0038Z" fill="black"/>
</svg>
